{"title":"Preacher S01E08 1080p HDTV 6CH HEVC X265-GIRAYS 470MB","uid":15341829,"size":494661256,"categoryP":"video","categoryS":"hd___tv_shows","magnet":"?xt=urn:btih:a2b252931b55d2d6695c2024d1ef26f5e0943ec0&amp;dn=Preacher+S01E08+1080p+HDTV+6CH+HEVC+X265-GIRAYS+470MB&amp;tr=udp%3A%2F%2Ftracker.leechers-paradise.org%3A6969&amp;tr=udp%3A%2F%2Fzer0day.ch%3A1337&amp;tr=udp%3A%2F%2Fopen.demonii.com%3A1337&amp;tr=udp%3A%2F%2Ftracker.coppersurfer.tk%3A6969&amp;tr=udp%3A%2F%2Fexodus.desync.com%3A6969","seeders":3,"leechers":5,"uploader":"insane86","files":1,"time":1468847255,"description":"Source: Preacher.S01E08.1080p.HDTV.X264-DIMENSION\r\n\r\nScreenshots: \nhttps://postimg.org/image/t0ugvv0ld/ \nhttps://postimg.org/image/60ntjj2rl/\r\n\r\nEnglish subtitle added.\r\n\r\nGeneral\r\nFormat                      : Matroska\r\nFormat version              : Version 4 / Version 2\r\nFile size                   : 472 MiB\r\nDuration                    : 43mn 11s\r\nOverall bit rate            : 1 527 Kbps\r\nEncoded date                : UTC 2016-07-18 10:59:17\r\nWriting application         : mkvmerge v9.3.1 ('Mask Machine') 64bit\r\nWriting library             : libebml v1.3.4 + libmatroska v1.4.5\r\n\r\nVideo\r\nID                          : 1\r\nFormat                      : HEVC\r\nFormat/Info                 : High Efficiency Video Coding\r\nFormat profile              :   @Main\r\nCodec ID                    : V_MPEGH/ISO/HEVC\r\nDuration                    : 43mn 11s\r\nBit rate                    : 1 314 Kbps\r\nWidth                       : 1 920 pixels\r\nHeight                      : 1 080 pixels\r\nDisplay aspect ratio        : 16:9\r\nFrame rate mode             : Constant\r\nFrame rate                  : 23.976 (24000/1001) fps\r\nColor space                 : YUV\r\nChroma subsampling          : 4:2:0\r\nBit depth                   : 8 bits\r\nBits/(Pixel*Frame)          : 0.026\r\nStream size                 : 406 MiB (86%)\r\nWriting library             : x265 1.9+200-6098ba3e0cf16b11:[Windows][GCC 5.3.0][64 bit] 8bit+10bit+12bit\r\nDefault                     : Yes\r\nForced                      : No\r\n\r\nAudio\r\nID                          : 2\r\nFormat                      : AAC\r\nFormat/Info                 : Advanced Audio Codec\r\nFormat profile              : HE-AAC / LC\r\nCodec ID                    : A_AAC\r\nDuration                    : 43mn 11s\r\nBit rate                    : 212 Kbps\r\nChannel(s)                  : 6 channels\r\nChannel positions           : Front: L C R, Side: L R, LFE\r\nSampling rate               : 48.0 KHz / 24.0 KHz\r\nFrame rate                  : 23.438 fps (1024 spf)\r\nCompression mode            : Lossy\r\nDelay relative to video     : 40ms\r\nStream size                 : 65.4 MiB (14%)\r\nLanguage                    : English\r\nDefault                     : Yes\r\nForced                      : No\r\n\r\nText\r\nID                          : 3\r\nFormat                      : UTF-8\r\nCodec ID                    : S_TEXT/UTF8\r\nCodec ID/Info               : UTF-8 Plain Text\r\nDuration                    : 41mn 59s\r\nBit rate                    : 47 bps\r\nCount of elements           : 593\r\nStream size                 : 14.7 KiB (0%)\r\nTitle                       : English\r\nLanguage                    : English\r\nDefault                     : Yes\r\nForced                      : No","torrent":{"xt":"urn:btih:a2b252931b55d2d6695c2024d1ef26f5e0943ec0","amp;dn":"Preacher+S01E08+1080p+HDTV+6CH+HEVC+X265-GIRAYS+470MB","amp;tr":["udp%3A%2F%2Ftracker.leechers-paradise.org%3A6969","udp%3A%2F%2Fzer0day.ch%3A1337","udp%3A%2F%2Fopen.demonii.com%3A1337","udp%3A%2F%2Ftracker.coppersurfer.tk%3A6969","udp%3A%2F%2Fexodus.desync.com%3A6969"],"infoHash":"a2b252931b55d2d6695c2024d1ef26f5e0943ec0","infoHashBuffer":{"type":"Buffer","data":[162,178,82,147,27,85,210,214,105,92,32,36,209,239,38,245,224,148,62,192]},"announce":[],"urlList":[]}}